:SAMPLES-PER-SECOND 30
:FULLY-SPECIFIED
:DEGREES
397
root  64.044 32.7702 51.2252 -21.883 -69.4688 39.5722
RightUpLeg  -43.5863 -7.53637 10.7054
RightLeg  22.4319 -12.9994 -4.36409
RightFoot  -12.7132 0.294782 3.02338
RightToes  -12.1978 -0.0423638 -0.111327
Spine  7.86798 -3.02557 -1.54728
Spine1  15.1425 -6.31347 -3.31314
HEad  29.0125 12.9238 -3.01126
LeftShoulder1  0 -2.42657e-020 -4.95415e-022
LeftArm  -25.2837 4.05418 -72.865
LeftForeArm  41.7496 -46.1865 -10.5916
LeftHand  -0.628629 -9.74343 7.00032
RightShoulder  0 2.42657e-020 1.07489e-018
RightArm  -23.2003 -11.4475 84.9517
RightForeArm  27.9185 45.9201 10.5092
RightHand  -0.778255 24.3661 -3.23441
LeftUpLeg  -5.21462 -5.53513 -7.32114
LeftLeg  44.9493 -16.2954 -13.8382
LeftFoot  17.1597 1.01035 -6.68911
LeftToes  -37.2769 1.71452e-006 7.46813e-008
398
root  61.0577 32.1236 52.5617 -25.6925 -69.0122 40.9197
RightUpLeg  -41.6187 -6.70647 10.7111
RightLeg  29.3576 -14.0504 -6.65818
RightFoot  -13.8281 0.409109 3.75054
RightToes  -3.34532 -0.00924362 -0.0313924
Spine  7.89245 -3.35103 -1.39196
Spine1  15.1217 -7.04343 -2.93634
HEad  29.7493 8.83025 -0.0267591
LeftShoulder1  0 -2.42657e-020 -4.95415e-022
LeftArm  -27.158 8.58213 -76.9829
LeftForeArm  49.3451 -60.4278 -18.1577
LeftHand  -1.01449 -9.43315 11.888
RightShoulder  0 2.42657e-020 1.07489e-018
RightArm  -25.07 -11.1993 84.4995
RightForeArm  28.9765 45.3982 10.316
RightHand  -0.743769 24.0045 -3.12824
LeftUpLeg  -3.59117 -7.16846 -6.93214
LeftLeg  53.6612 -13.8519 -15.9214
LeftFoot  13.48 0.621552 -5.2557
LeftToes  -43.3144 1.71452e-006 7.46813e-008
399
root  58.1982 31.1743 53.7337 -30.1159 -68.6893 43.4963
RightUpLeg  -40.5393 -2.96318 8.62394
RightLeg  39.3646 -12.9976 -9.18721
RightFoot  -17.4197 0.68583 4.8523
RightToes  23.543 0.0118233 0.228414
Spine  7.95475 -3.67285 -1.53029
Spine1  15.1292 -7.73974 -3.07939
HEad  27.7268 5.07375 2.11917
LeftShoulder1  0 -2.42657e-020 -4.95415e-022
LeftArm  -29.3336 11.1875 -79.9101
LeftForeArm  63.2186 -73.2332 -36.0911
LeftHand  -0.941167 -7.2355 14.447
RightShoulder  0 2.42657e-020 1.07489e-018
RightArm  -26.3664 -10.8469 84.2147
RightForeArm  31.1349 46.7797 10.8338
RightHand  -0.789797 24.1461 -3.32216
LeftUpLeg  -4.76175 -5.06643 -4.83413
LeftLeg  62.3429 -7.53058 -12.157
LeftFoot  10.5293 0.262362 -2.84671
LeftToes  -39.7277 1.71452e-006 7.46813e-008
400
root  55.3931 30.4777 54.6532 -32.7019 -68.8925 43.9374
RightUpLeg  -38.885 -0.982489 8.08553
RightLeg  50.2568 -12.5105 -12.9235
RightFoot  -24.0358 1.53651 7.5863
RightToes  26.0726 0.00749502 0.25278
Spine  8.32829 -3.82807 -1.54006
Spine1  15.6441 -8.13038 -2.8763
HEad  26.6332 2.11453 4.07193
LeftShoulder1  0 -2.42657e-020 -4.95415e-022
LeftArm  -31.598 12.1985 -82.2332
LeftForeArm  103.692 -79.7402 -79.6911
LeftHand  -0.65449 -6.20288 11.6779
RightShoulder  0 2.42657e-020 1.07489e-018
RightArm  -26.9454 -8.8701 83.8569
RightForeArm  30.9327 45.851 10.4822
RightHand  -1.32303 23.6239 -5.95179
LeftUpLeg  -8.19234 -3.5397 -2.01189
LeftLeg  70.285 -1.50134 -3.48134
LeftFoot  5.4217 0.0282626 -0.596908
LeftToes  -31.8559 1.71452e-006 7.46813e-008
401
root  52.7294 30.288 55.2246 -32.4822 -71.2634 43.9015
RightUpLeg  -34.2054 -2.19243 10.0615
RightLeg  50.1986 -10.4567 -10.8697
RightFoot  -28.643 1.81129 7.46414
RightToes  24.5981 0.00888219 0.238601
Spine  7.91464 -3.68409 -1.24211
Spine1  14.7267 -7.72666 -2.44757
HEad  26.3117 0.922297 5.57724
LeftShoulder1  0 -2.42657e-020 -4.95415e-022
LeftArm  -32.6603 14.9667 -83.4893
LeftForeArm  146.65 -77.9535 -123.198
LeftHand  -0.557421 -5.88156 10.461
RightShoulder  0 2.42657e-020 1.07489e-018
RightArm  -27.0735 -6.14155 84.1286
RightForeArm  31.7039 43.1304 9.51758
RightHand  -1.49606 21.9308 -7.3423
LeftUpLeg  -16.7317 -3.352 0.704903
LeftLeg  76.8049 0.86191 2.81578
LeftFoot  -0.139334 -0.000258289 -0.212426
LeftToes  -22.3884 1.71452e-006 7.46813e-008
402
root  50.0346 30.6814 55.6594 -38.1069 -73.8997 50.2056
RightUpLeg  -27.388 -2.13883 10.0404
RightLeg  45.5541 -9.02993 -8.03607
RightFoot  -29.8358 1.55015 6.19164
RightToes  23.0047 0.012907 0.223207
Spine  7.57696 -2.96317 -1.56347
Spine1  14.1028 -6.08671 -3.04485
HEad  26.6973 -0.553813 7.6733
LeftShoulder1  0 -2.42657e-020 -4.95415e-022
LeftArm  -31.0048 17.1008 -82.8411
LeftForeArm  156.141 -76.0328 -134.041
LeftHand  -0.538666 -5.771 10.2986
RightShoulder  0 2.42657e-020 1.07489e-018
RightArm  -27.5322 -4.82865 85.4309
RightForeArm  30.353 43.1781 9.53446
RightHand  -1.34639 21.7842 -6.62044
LeftUpLeg  -24.7982 -3.32866 1.35813
LeftLeg  76.6331 1.03127 3.33636
LeftFoot  -5.62814 -0.0236553 -0.481251
LeftToes  -9.85 1.71452e-006 7.46813e-008
403
root  47.1729 31.4684 55.9881 -47.0868 -75.6135 59.2048
RightUpLeg  -17.5626 -1.59554 8.94758
RightLeg  36.4687 -8.7102 -5.58428
RightFoot  -27.179 1.08054 4.84556
RightToes  19.6873 0.0169394 0.19097
Spine  7.62801 -2.31156 -2.38304
Spine1  14.2428 -4.51882 -4.56476
HEad  27.4046 -2.16674 10.8547
LeftShoulder1  0 -2.42657e-020 -4.95415e-022
LeftArm  -28.1913 18.9178 -81.0229
LeftForeArm  154.95 -75.5004 -136.236
LeftHand  -0.396168 -5.06204 8.58599
RightShoulder  0 2.42657e-020 1.07489e-018
RightArm  -27.1247 -3.89971 87.5757
RightForeArm  30.0702 42.6555 9.35936
RightHand  -1.56013 20.5245 -8.23395
LeftUpLeg  -29.9671 -3.81539 1.09024
LeftLeg  69.2419 0.649535 1.41361
LeftFoot  -8.08287 -0.0210981 -0.298621
LeftToes  -8.96553 1.71452e-006 7.46813e-008
404
root  43.9545 32.4141 56.3456 -74.4113 -74.1536 82.891
RightUpLeg  -3.64787 1.39087 3.97864
RightLeg  27.629 -8.94993 -3.95601
RightFoot  -21.4107 0.611705 3.61255
RightToes  13.7394 0.01835 0.132838
Spine  9.3832 -1.26946 -4.75371
Spine1  17.4134 -1.69619 -9.03069
HEad  27.8477 -2.96416 13.8215
LeftShoulder1  0 -2.42657e-020 -4.95415e-022
LeftArm  -26.4459 18.0321 -78.9806
LeftForeArm  148.056 -76.9478 -129.556
LeftHand  -0.535235 -5.01049 11.8335
RightShoulder  0 2.42657e-020 1.07489e-018
RightArm  -24.4319 -1.19873 90.7084
RightForeArm  28.9164 40.2145 8.5799
RightHand  -1.50501 20.6406 -7.88343
LeftUpLeg  -26.3967 -2.30128 -3.4137
LeftLeg  53.5977 0.361246 0.420818
LeftFoot  -8.11374 -0.00521582 -0.0735497
LeftToes  -8.26997 1.71452e-006 7.46813e-008
405
root  41.1263 32.9466 56.4968 -86.0693 -73.7074 94.5097
RightUpLeg  4.58587 3.49196 2.53805
RightLeg  20.1913 -8.96084 -2.64219
RightFoot  -13.7192 0.217003 2.18139
RightToes  7.59263 0.0140853 0.072881
Spine  9.58769 -0.799226 -5.69163
Spine1  17.6961 -0.348478 -10.7666
HEad  27.8687 -3.93725 15.8372
LeftShoulder1  0 -2.42657e-020 -4.95415e-022
LeftArm  -23.8329 16.934 -79.9644
LeftForeArm  145.553 -77.5693 -125.852
LeftHand  -0.638537 -4.24491 16.7586
RightShoulder  0 2.42657e-020 1.07489e-018
RightArm  -21.2636 0.120342 91.9445
RightForeArm  28.9634 38.7778 8.14762
RightHand  -1.36104 22.0278 -6.61641
LeftUpLeg  -27.4649 -2.3678 -3.9372
LeftLeg  37.6352 -0.343497 -0.236201
LeftFoot  -7.3612 0.00495001 0.0769415
LeftToes  -8.84868 1.71452e-006 7.46813e-008
406
root  38.5707 32.9689 56.6504 -86.6505 -76.0011 97.5567
RightUpLeg  8.77373 4.36727 4.42941
RightLeg  14.5052 -9.50527 -1.80513
RightFoot  -5.52848 0.0221647 0.836714
RightToes  -2.88052 -0.00784987 -0.0270638
Spine  8.70166 -1.07008 -5.21336
Spine1  16.0406 -0.822716 -10.0799
HEad  27.9573 -5.33866 17.6361
LeftShoulder1  0 -2.42657e-020 -4.95415e-022
LeftArm  -21.1412 16.1165 -82.7973
LeftForeArm  151.073 -78.21 -121.256
LeftHand  -1.21737 -6.10479 22.1897
RightShoulder  0 2.42657e-020 1.07489e-018
RightArm  -19.0053 0.736419 91.8828
RightForeArm  29.9882 37.3919 7.74692
RightHand  -0.941101 23.2094 -4.21156
LeftUpLeg  -32.8741 -3.4926 -1.22706
LeftLeg  24.2589 -2.22428 -0.837684
LeftFoot  -5.57932 0.0108711 0.22309
LeftToes  -11.8868 1.71452e-006 7.46813e-008
